<svg width="197" height="68" viewBox="0 0 197 68" fill="none" xmlns="http://www.w3.org/2000/svg">
<path d="M55.2392 31.6456C55.2392 31.1055 55.2215 30.5942 55.2215 30.1466C55.2215 27.2987 53.8277 25.8747 52.6579 25.1815C51.4627 24.5314 50.1144 24.1997 48.7477 24.2197C45.8482 24.2197 43.7118 25.0198 42.3917 26.5939C41.6306 27.5269 41.1709 28.6613 41.0716 29.8519C41.0687 29.8827 41.0687 29.9136 41.0716 29.9444C41.1079 30.3248 41.2891 30.6779 41.5791 30.9332C41.869 31.1885 42.2465 31.3274 42.6363 31.3221C43.0046 31.3589 43.3732 31.2556 43.6661 31.0336C43.9589 30.8116 44.1536 30.4879 44.2098 30.1292C44.5457 28.5984 45.2912 27.1802 48.4766 27.1802C50.165 27.1802 51.2671 27.5211 51.8446 28.2229C52.0427 28.4326 52.1931 28.6811 52.2861 28.9519C52.379 29.2227 52.4124 29.5098 52.3838 29.7942C52.3838 30.3141 52.1835 30.9495 50.6159 31.2874C49.5992 31.5041 48.5296 31.6254 47.4953 31.7409L47.0003 31.7987C41.1364 32.4774 40.2524 35.5102 40.2524 37.2547C40.2524 40.4203 44.1361 42.2111 46.9414 42.2977C47.0799 42.2977 47.2567 42.2977 47.46 42.2977C48.521 42.3205 49.5762 42.139 50.5658 41.7634L50.6512 41.7287C51.6211 41.3665 52.4996 40.8032 53.2269 40.0774C53.9541 39.3515 54.5129 38.4804 54.8649 37.5233C55.3217 36.3189 55.2804 33.835 55.2392 31.6456ZM52.2572 34.8661C52.2572 38.4938 48.7035 39.2881 47.3333 39.2881C45.4651 39.2881 43.4525 38.3147 43.4525 36.7377C43.4525 35.0394 45.0113 34.505 48.288 34.014C49.1396 33.8869 50.5275 33.6472 51.4468 33.4739C51.7252 33.417 51.9968 33.3318 52.2572 33.2197V34.8661Z" fill="#3579C1"/>
<path d="M58.0751 25.996C58.0751 25.2883 58.4345 24.9331 59.1594 24.9331H59.9167C60.6386 24.9331 61.0011 25.2883 61.0011 25.8371V26.8018C61.0009 27.0918 60.9792 27.3814 60.9362 27.6683H61.0011C61.0011 27.6683 62.4155 24.5403 66.5997 24.5403C71.0728 24.5403 73.9016 28.0207 73.9016 33.0839C73.9016 38.2829 70.7103 41.6247 66.3699 41.6247C65.3215 41.6562 64.2845 41.4031 63.3735 40.8934C62.4625 40.3838 61.7129 39.6373 61.2074 38.7364H61.1425C61.2104 39.2061 61.2429 39.6801 61.2397 40.1546V46.6302C61.2397 47.3407 60.8773 47.6959 60.1878 47.6959H59.1594C58.4345 47.6959 58.0751 47.3407 58.0751 46.6302V25.996ZM65.869 38.9241C68.5003 38.9241 70.6691 36.8272 70.6691 33.1215C70.6691 29.5746 68.7302 27.2871 65.9544 27.2871C63.4674 27.2784 61.1749 28.9941 61.1749 33.1532C61.1749 36.056 62.8103 38.9241 65.869 38.9241Z" fill="#3579C1"/>
<path d="M76.7908 25.996C76.7908 25.2883 77.1503 24.9331 77.8752 24.9331H78.6325C79.3546 24.9331 79.7168 25.2883 79.7168 25.8371V26.8018C79.7168 27.0918 79.6951 27.3814 79.6521 27.6683H79.7168C79.7168 27.6683 81.1313 24.5403 85.3154 24.5403C89.7885 24.5403 92.6174 28.0207 92.6174 33.0839C92.6174 38.2829 89.429 41.6247 85.0856 41.6247C84.0373 41.6562 83.0002 41.4031 82.0893 40.8934C81.1781 40.3838 80.4285 39.6373 79.9229 38.7364H79.8582C79.926 39.2061 79.9586 39.6801 79.9555 40.1546V46.6302C79.9555 47.3407 79.5932 47.6959 78.9036 47.6959H77.884C77.1591 47.6959 76.7996 47.3407 76.7996 46.6302L76.7908 25.996ZM84.5847 38.9241C87.216 38.9241 89.3848 36.8272 89.3848 33.1215C89.3848 29.5746 87.4458 27.2871 84.6703 27.2871C82.1715 27.2871 79.8702 28.9941 79.8702 33.1532C79.8849 36.056 81.5291 38.9241 84.5878 38.9241H84.5847Z" fill="#3579C1"/>
<path d="M96.1102 27.6424H95.0642C94.9177 27.6579 94.7693 27.641 94.6303 27.593C94.4912 27.5449 94.3645 27.4669 94.2603 27.3646C94.1561 27.2624 94.0766 27.1385 94.0274 27.0022C93.9782 26.8658 93.9612 26.7204 93.9771 26.5767V26.1578C93.9616 26.0143 93.979 25.8692 94.0286 25.7332C94.0778 25.5973 94.1572 25.4738 94.2618 25.3719C94.366 25.2699 94.4919 25.1922 94.631 25.1443C94.7697 25.0964 94.9177 25.0795 95.0642 25.0949H96.1164V24.3208C96.1102 19.1623 100.418 18.3247 102.136 18.3247H102.531C103.247 18.3247 103.609 18.7117 103.609 19.3876V19.9999C103.609 20.7105 103.218 20.9993 102.46 21.0657C101.243 21.1293 99.3017 21.4181 99.3017 24.4508V25.0949H102.163C102.309 25.0795 102.457 25.0964 102.596 25.1443C102.735 25.1922 102.861 25.2699 102.966 25.3719C103.07 25.4738 103.149 25.5973 103.199 25.7332C103.248 25.8692 103.265 26.0143 103.25 26.1578V26.5767C103.266 26.7204 103.249 26.8658 103.2 27.0022C103.151 27.1385 103.071 27.2624 102.967 27.3646C102.862 27.4669 102.736 27.5449 102.597 27.593C102.458 27.641 102.309 27.6579 102.163 27.6424H99.3017V40.1806C99.3017 40.8912 98.9422 41.2464 98.2174 41.2464H97.1977C96.5081 41.2464 96.1133 40.8912 96.1133 40.1806L96.1102 27.6424Z" fill="#3579C1"/>
<path d="M112.692 24.5464C117.661 24.5464 121.671 28.125 121.671 33.0583C121.671 37.9915 117.661 41.6308 112.692 41.6308C107.724 41.6308 103.749 38.0204 103.749 33.0554C103.749 28.0904 107.736 24.5464 112.692 24.5464ZM112.692 38.9245C115.851 38.9245 118.415 36.4751 118.415 33.0583C118.415 29.6414 115.851 27.2557 112.692 27.2557C109.534 27.2557 106.97 29.6732 106.97 33.0554C106.97 36.4376 109.569 38.9245 112.692 38.9245Z" fill="#3579C1"/>
<path d="M124.436 19.5494C124.436 18.8427 124.799 18.4884 125.524 18.4865H126.543C127.233 18.4865 127.627 18.8418 127.627 19.5494V36.4085C127.627 38.2484 128.45 38.5055 129.139 38.569C129.259 38.5721 129.377 38.5992 129.486 38.6486C129.596 38.698 129.693 38.7686 129.773 38.8562C129.854 38.9438 129.915 39.0464 129.953 39.1579C129.991 39.2695 130.007 39.3875 129.997 39.5048V40.276C129.997 40.9519 129.702 41.3707 128.877 41.3707C127.109 41.3707 124.436 40.8883 124.436 36.7927V19.5494Z" fill="#3579C1"/>
<path d="M132.864 25.9962C132.864 25.2885 133.259 24.9332 133.948 24.9332H134.968C135.693 24.9332 136.052 25.2885 136.052 25.9962V40.1807C136.052 40.8912 135.693 41.2465 134.968 41.2465H133.957C133.268 41.2465 132.873 40.8912 132.873 40.1807L132.864 25.9962Z" fill="#3579C1"/>
<path d="M147.771 24.5464C152.739 24.5464 156.749 28.125 156.749 33.0583C156.749 37.9915 152.739 41.6308 147.771 41.6308C142.803 41.6308 138.825 38.0204 138.825 33.0554C138.825 28.0904 142.8 24.5464 147.771 24.5464ZM147.771 38.9245C150.93 38.9245 153.493 36.4751 153.493 33.0583C153.493 29.6414 150.93 27.2557 147.771 27.2557C144.612 27.2557 142.048 29.6732 142.048 33.0554C142.048 36.4376 144.647 38.9245 147.771 38.9245Z" fill="#3579C1"/>
</svg>
