<svg width="197" height="68" viewBox="0 0 197 68" fill="none" xmlns="http://www.w3.org/2000/svg">
<path d="M90.7701 31.0397C91.4424 29.4444 92.571 28.0891 93.9997 27.1175C97.1692 24.9825 101.347 25.1024 104.385 27.4174L107.17 23.771C101.239 19.2611 92.7751 20.4006 88.2488 26.3259C86.4599 28.6768 85.4874 31.5435 85.4874 34.4941C85.4874 39.4119 81.4895 43.4061 76.567 43.3941C75.3784 43.3941 74.2018 43.1542 73.1093 42.6984C71.5125 42.0267 70.1558 40.8992 69.1834 39.4719C67.5025 36.977 67.2024 33.7985 68.3669 31.0277C69.0393 29.4324 70.1678 28.0771 71.5965 27.1055C74.7661 24.9705 78.9322 25.0904 81.9697 27.4054L84.7551 23.759C82.4019 21.9718 79.5325 21.0003 76.579 21.0003C69.1233 20.9523 63.0483 26.9616 63.0003 34.4102C62.9523 41.8588 68.9672 47.928 76.4229 47.976C76.471 47.976 76.531 47.976 76.579 47.976C81.0692 47.976 85.2593 45.745 87.7686 42.0267C87.7686 42.0147 87.7806 42.0147 87.7806 42.0027C89.2813 39.7837 90.0737 37.1569 90.0737 34.4822C90.0617 33.3067 90.3018 32.1312 90.7701 31.0397Z" fill="#1C5A7D"/>
<path d="M129.741 37.9606C129.069 39.5558 127.94 40.9112 126.512 41.8828C125.047 42.8783 123.306 43.4061 121.529 43.4061C121.493 43.4061 121.457 43.4061 121.421 43.4061C121.313 43.4061 121.217 43.4061 121.109 43.3941C121.037 43.3941 120.965 43.3821 120.893 43.3821C120.833 43.3821 120.773 43.3701 120.701 43.3701C120.617 43.3581 120.545 43.3581 120.461 43.3461C120.413 43.3461 120.365 43.3341 120.305 43.3221L120.041 43.2861C120.005 43.2861 119.981 43.2742 119.945 43.2742C119.488 43.1902 119.044 43.0822 118.612 42.9263H118.6C118.36 42.8423 118.132 42.7584 117.904 42.6504C117.795 42.6025 117.699 42.5545 117.591 42.5065C117.495 42.4585 117.411 42.4105 117.315 42.3626C117.279 42.3506 117.255 42.3266 117.219 42.3146C117.051 42.2186 116.883 42.1227 116.715 42.0147C116.691 42.0027 116.679 41.9907 116.655 41.9787C116.475 41.8708 116.307 41.7508 116.151 41.6189C115.358 41.0312 114.674 40.3115 114.122 39.4959C114.122 39.4839 114.11 39.4719 114.098 39.4599C113.858 39.0761 113.629 38.6802 113.437 38.2724C113.017 39.8677 112.333 41.391 111.42 42.7704L111.396 42.8064L111.384 42.8304C111.312 42.9383 111.228 43.0463 111.144 43.1542L111.804 43.8859C112.453 44.5576 113.185 45.1693 113.954 45.697C115.238 46.5607 116.667 47.2084 118.168 47.5802H118.18C118.348 47.6282 118.516 47.6642 118.684 47.7001L118.732 47.7121C118.888 47.7481 119.044 47.7721 119.212 47.8081C119.236 47.8081 119.26 47.8201 119.284 47.8201C119.44 47.8441 119.584 47.8681 119.74 47.8801C119.776 47.8801 119.8 47.892 119.836 47.892C119.993 47.916 120.137 47.928 120.293 47.94C120.329 47.94 120.353 47.94 120.389 47.952C120.545 47.964 120.713 47.976 120.869 47.988C120.893 47.988 120.917 47.988 120.941 47.988C121.121 47.988 121.313 48 121.493 48H121.505C128.961 48 135 41.9667 135 34.5181V34.5061H130.414C130.438 35.6936 130.198 36.8691 129.741 37.9606Z" fill="#1C5A7D"/>
<path d="M112.549 34.4941C112.549 29.5764 116.535 25.5942 121.457 25.5942C123.402 25.5942 125.311 26.2299 126.86 27.4174L129.645 23.771C123.714 19.2611 115.25 20.4006 110.724 26.3259C108.935 28.6648 107.975 31.5195 107.963 34.4582V34.5061C107.963 39.4239 103.977 43.4061 99.0542 43.4061C99.0182 43.4061 98.9821 43.4061 98.9461 43.4061C98.8381 43.4061 98.742 43.4061 98.634 43.4061C98.5619 43.4061 98.4899 43.3941 98.4179 43.3941C98.3578 43.3941 98.2858 43.3821 98.2258 43.3821C98.1417 43.3701 98.0697 43.3701 97.9856 43.3581C97.9376 43.3581 97.8896 43.3461 97.8416 43.3461C97.7575 43.3341 97.6615 43.3221 97.5774 43.3101C97.5414 43.3101 97.5174 43.2981 97.4814 43.2981C97.0252 43.2142 96.5809 43.1062 96.1487 42.9623C96.1487 42.9623 96.1367 42.9623 96.1367 42.9503C95.8966 42.8663 95.6685 42.7704 95.4404 42.6744C95.3323 42.6264 95.2243 42.5785 95.1282 42.5305C95.0322 42.4825 94.9361 42.4345 94.8521 42.3866C94.8161 42.3626 94.7921 42.3506 94.756 42.3266C94.588 42.2306 94.4199 42.1347 94.2518 42.0267C94.2278 42.0147 94.2038 42.0027 94.1918 41.9787C94.0237 41.8708 93.8436 41.7508 93.6875 41.6189C92.8951 41.0312 92.2108 40.3115 91.6585 39.4959C91.6465 39.4839 91.6465 39.4719 91.6345 39.4599C91.3944 39.0761 91.1783 38.6802 90.9742 38.2724C90.554 39.8677 89.8696 41.391 88.9572 42.7704L88.9331 42.8064L88.9211 42.8304C88.8491 42.9383 88.7651 43.0463 88.681 43.1542L89.3414 43.8859C89.9897 44.5576 90.722 45.1693 91.4904 45.6851C92.7751 46.5487 94.2038 47.1964 95.7045 47.5682H95.7165C95.8846 47.6162 96.0527 47.6522 96.2328 47.6881C96.2448 47.6881 96.2688 47.7001 96.2808 47.7001C96.4369 47.7361 96.5929 47.7601 96.761 47.7961C96.785 47.7961 96.8091 47.8081 96.8331 47.8081C96.9891 47.8321 97.1332 47.8561 97.2893 47.8801L97.3853 47.892C97.5414 47.916 97.6855 47.928 97.8416 47.94C97.8776 47.94 97.9016 47.952 97.9376 47.952C98.0937 47.964 98.2498 47.976 98.4179 47.988C98.4419 47.988 98.4659 47.988 98.4899 47.988C98.67 48 98.8621 48 99.0422 48H99.0542C106.498 48 112.537 41.9907 112.549 34.5541V34.4941Z" fill="#1C5A7D"/>
<path d="M134.988 46.1648C134.988 45.1573 134.172 44.3537 133.175 44.3537C132.167 44.3537 131.362 45.1693 131.362 46.1648C131.362 47.1604 132.167 47.976 133.175 47.976C134.172 47.988 134.988 47.1844 135 46.2008C134.988 46.1888 134.988 46.1768 134.988 46.1648ZM131.566 46.1768C131.566 45.2892 132.287 44.5696 133.175 44.5696C134.064 44.5696 134.784 45.2892 134.784 46.1768C134.784 47.0644 134.064 47.7841 133.175 47.7841C132.287 47.7841 131.566 47.0764 131.566 46.1768C131.566 46.1888 131.566 46.1888 131.566 46.1768Z" fill="#1C5A7D"/>
<path d="M133.595 47.0884H134.088L133.619 46.3927C133.883 46.3088 134.052 46.0689 134.04 45.793C134.04 45.3972 133.739 45.1573 133.283 45.1573H132.431V47.0764H132.863V46.4527H133.199L133.595 47.0884ZM132.851 45.5291H133.271C133.487 45.5291 133.607 45.6251 133.607 45.817C133.607 45.9849 133.487 46.0929 133.271 46.0929H132.851V45.5291Z" fill="#1C5A7D"/>
</svg>
