<svg width="197" height="68" viewBox="0 0 197 68" fill="none" xmlns="http://www.w3.org/2000/svg">
<path d="M54.671 18.4165C51.056 16.1559 46.297 16.6945 42.0525 19.3638C37.8213 16.6945 33.0593 16.1559 29.4487 18.4165C23.7373 21.9889 23.0429 31.1891 27.8993 38.9669C31.4788 44.701 37.0767 48.0609 42.0599 47.9989C47.043 48.0609 52.6409 44.701 56.2205 38.9669C61.0709 31.1891 60.3824 21.9889 54.671 18.4165ZM30.525 37.3246C29.5236 35.7358 28.7681 34.0045 28.284 32.1896C27.854 30.6141 27.6896 28.9778 27.7975 27.3482C28.0142 24.4738 29.1834 22.2353 31.0882 21.0445C32.9929 19.8537 35.511 19.7814 38.1928 20.8468C38.5953 21.0076 38.9933 21.1936 39.3884 21.3987C37.8982 22.7587 36.6024 24.3178 35.5376 26.032C32.589 30.7538 31.6897 36.0084 32.7187 40.1975C31.8982 39.3116 31.1636 38.3496 30.525 37.3246ZM55.8371 32.1881C55.3525 34.0028 54.597 35.734 53.5962 37.3231C52.957 38.3496 52.2225 39.3135 51.4025 40.202C52.3224 36.4466 51.6973 31.8458 49.4417 27.5312C49.4056 27.4601 49.3551 27.3974 49.2934 27.3471C49.2316 27.2968 49.16 27.26 49.0831 27.2392C49.0063 27.2183 48.926 27.2138 48.8473 27.226C48.7686 27.2382 48.6933 27.2667 48.6264 27.3098L41.594 31.7071C41.5298 31.7471 41.4742 31.7994 41.4303 31.861C41.3864 31.9226 41.355 31.9923 41.3381 32.066C41.3211 32.1398 41.3188 32.2161 41.3313 32.2908C41.3439 32.3654 41.371 32.4368 41.4112 32.5009L42.4432 34.1521C42.4831 34.2162 42.5352 34.2719 42.5966 34.3158C42.658 34.3597 42.7275 34.3911 42.8011 34.4081C42.8746 34.4251 42.9508 34.4274 43.0252 34.4149C43.0997 34.4023 43.1709 34.3752 43.2349 34.3351L47.7934 31.4842C47.9408 31.9269 48.0883 32.3696 48.1988 32.8123C48.6288 34.3857 48.7937 36.02 48.6868 37.6477C48.4701 40.5207 47.301 42.7591 45.3962 43.9514C44.4137 44.5526 43.288 44.8788 42.1365 44.8958H41.9906C40.8391 44.8791 39.7132 44.553 38.7309 43.9514C36.8246 42.7591 35.6555 40.5207 35.4388 37.6477C35.3315 36.0181 35.4959 34.382 35.9253 32.8064C36.9134 29.1611 38.9558 25.8895 41.796 23.4025C43.0208 22.3265 44.4158 21.4618 45.924 20.8438C48.5984 19.7785 51.1209 19.8493 53.0271 21.0416C54.9334 22.2338 56.101 24.4708 56.3178 27.3452C56.4271 28.975 56.2647 30.6117 55.8371 32.1881ZM92.1372 28.7544C88.4397 28.7544 85.4513 31.6436 85.4513 35.3193C85.4513 38.9699 88.4397 41.8118 92.1372 41.8118C95.8598 41.8118 98.8482 38.9743 98.8482 35.3193C98.8482 31.6451 95.8643 28.7559 92.1372 28.7559V28.7544ZM92.1372 38.3796C90.433 38.3796 89.1356 37 89.1356 35.2942C89.1356 33.5884 90.433 32.1881 92.1372 32.1881C93.8666 32.1881 95.164 33.5928 95.164 35.2986C95.164 37.0044 93.8666 38.3855 92.1372 38.3855V38.3796ZM107.185 23.7124H100.382C100.308 23.711 100.235 23.7244 100.167 23.752C100.099 23.7795 100.037 23.8206 99.9848 23.8727C99.9329 23.9248 99.8921 23.9868 99.8647 24.0551C99.8374 24.1234 99.8241 24.1966 99.8257 24.2701V40.8719C99.8204 40.9479 99.8309 41.0242 99.8565 41.0959C99.8821 41.1677 99.9223 41.2333 99.9745 41.2888C100.027 41.3442 100.09 41.3882 100.16 41.4181C100.23 41.4479 100.305 41.4629 100.382 41.4621H107.185C112.63 41.4621 116.413 37.8381 116.413 32.5658C116.413 27.2611 112.63 23.7124 107.185 23.7124ZM107.346 37.9561H103.623V27.2095H107.346C110.36 27.2095 112.437 29.4656 112.437 32.5585C112.437 35.5996 110.36 37.9561 107.346 37.9561ZM129.956 29.1115H127.398C127.256 29.1227 127.124 29.1858 127.026 29.2888C126.928 29.3917 126.871 29.5272 126.867 29.6693V30.4292C126.285 29.4656 124.968 28.7559 123.329 28.7559C120.139 28.7559 117.15 31.2644 117.15 35.2706C117.15 39.2546 120.112 41.8089 123.304 41.8089C124.949 41.8089 126.292 41.1006 126.875 40.137V40.922C126.875 41.0628 126.931 41.1976 127.031 41.2973C127.13 41.397 127.265 41.4536 127.405 41.4547H129.963C130.034 41.4563 130.103 41.4437 130.169 41.4175C130.234 41.3913 130.293 41.3521 130.343 41.3023C130.393 41.2525 130.432 41.1931 130.458 41.1278C130.484 41.0624 130.497 40.9924 130.495 40.922V29.6693C130.498 29.5969 130.485 29.5249 130.459 29.4574C130.433 29.3899 130.394 29.3283 130.343 29.2763C130.293 29.2243 130.233 29.183 130.166 29.1547C130.1 29.1263 130.028 29.1117 129.956 29.1115ZM124.006 38.4077C122.312 38.4077 121.039 37.1047 121.039 35.2971C121.039 33.4896 122.312 32.1881 124.006 32.1881C125.7 32.1881 126.972 33.4881 126.972 35.2957C126.972 37.1032 125.701 38.4062 124.006 38.4062V38.4077ZM144.314 23.7124H141.756C141.685 23.7102 141.613 23.7223 141.546 23.748C141.479 23.7738 141.418 23.8125 141.367 23.8621C141.315 23.9117 141.274 23.9711 141.245 24.0368C141.216 24.1026 141.201 24.1734 141.2 24.2451V30.379C140.611 29.4656 139.275 28.7559 137.604 28.7559C134.438 28.7559 131.501 31.2644 131.501 35.2706C131.501 39.2546 134.463 41.8089 137.655 41.8089C139.3 41.8089 140.541 41.1006 141.225 40.137V40.922C141.226 41.0629 141.282 41.198 141.381 41.2978C141.481 41.3975 141.615 41.4539 141.756 41.4547H144.314C144.384 41.4565 144.454 41.444 144.52 41.4179C144.585 41.3918 144.645 41.3526 144.694 41.3028C144.744 41.2529 144.783 41.1935 144.809 41.128C144.836 41.0626 144.848 40.9925 144.846 40.922V24.248C144.848 24.1773 144.836 24.1069 144.81 24.0411C144.784 23.9753 144.745 23.9155 144.696 23.8653C144.646 23.8152 144.586 23.7757 144.521 23.7494C144.455 23.7231 144.385 23.7105 144.314 23.7124ZM138.364 38.4386C136.677 38.4386 135.415 37.1224 135.415 35.2957C135.415 33.4689 136.682 32.1527 138.364 32.1527C140.046 32.1527 141.312 33.4689 141.312 35.2957C141.312 37.1224 140.052 38.4386 138.364 38.4386ZM158.669 23.7124H156.116C156.044 23.7102 155.973 23.7223 155.906 23.748C155.839 23.7737 155.778 23.8125 155.726 23.862C155.674 23.9116 155.632 23.971 155.604 24.0367C155.575 24.1025 155.56 24.1733 155.558 24.2451V30.379C154.976 29.4656 153.633 28.7559 151.963 28.7559C148.796 28.7559 145.859 31.2644 145.859 35.2706C145.859 39.2546 148.822 41.8089 152.013 41.8089C153.66 41.8089 154.899 41.1006 155.584 40.137V40.922C155.584 41.0631 155.641 41.1981 155.74 41.2978C155.84 41.3976 155.975 41.4539 156.116 41.4547H158.669C158.74 41.4566 158.81 41.444 158.875 41.4179C158.94 41.3917 158.999 41.3525 159.049 41.3027C159.099 41.2528 159.138 41.1934 159.164 41.1279C159.19 41.0625 159.202 40.9924 159.2 40.922V24.248C159.202 24.1774 159.19 24.107 159.165 24.0412C159.139 23.9754 159.1 23.9156 159.05 23.8654C159.001 23.8152 158.941 23.7758 158.876 23.7495C158.81 23.7231 158.74 23.7105 158.669 23.7124ZM152.719 38.4386C151.031 38.4386 149.77 37.1224 149.77 35.2957C149.77 33.4689 151.037 32.1527 152.719 32.1527C154.401 32.1527 155.668 33.4689 155.668 35.2957C155.668 37.1224 154.41 38.4386 152.723 38.4386H152.719ZM172.675 29.9747L168.858 43.0764C168.121 45.4078 166.477 46.8022 163.919 46.8022C162.756 46.8022 161.697 46.5647 160.867 46.0895C160.384 45.8136 159.983 45.5613 159.983 45.1569C159.983 44.9061 160.064 44.7763 160.211 44.5416L160.969 43.4054C161.183 43.0882 161.341 42.9849 161.571 42.9849C161.753 42.9894 161.929 43.0508 162.075 43.1605C162.551 43.4689 162.993 43.7345 163.667 43.7345C164.454 43.7345 165.056 43.4822 165.38 42.5437L165.708 41.4562H164.162C164.004 41.4613 163.849 41.4108 163.724 41.3135C163.599 41.2162 163.512 41.0783 163.478 40.9235L160.062 29.9747C159.936 29.5439 160.052 29.113 160.685 29.113H163.375C163.704 29.113 163.934 29.2251 164.078 29.6958L166.601 38.5124L168.96 29.6958C169.035 29.3919 169.238 29.113 169.644 29.113H172.196C172.699 29.1115 172.85 29.4656 172.675 29.9747ZM84.4871 33.8717V40.8704C84.4883 40.9467 84.4742 41.0224 84.4456 41.0932C84.4169 41.1639 84.3744 41.2281 84.3205 41.2821C84.2666 41.336 84.2024 41.3786 84.1318 41.4072C84.0611 41.4359 83.9854 41.45 83.9092 41.4488H81.798C81.7217 41.4502 81.646 41.4362 81.5752 41.4076C81.5045 41.3791 81.4402 41.3365 81.3862 41.2825C81.3323 41.2285 81.2898 41.1642 81.2612 41.0934C81.2327 41.0226 81.2187 40.9467 81.2201 40.8704V39.0333C79.88 40.7273 77.5491 41.7941 74.9131 41.7941C69.9624 41.7941 66.0938 38.0668 66.0938 32.7606C66.0938 27.2464 70.2705 23.4453 75.547 23.4453C79.4421 23.4453 82.5558 25.1215 83.9387 28.4932C83.9774 28.5823 83.9989 28.678 84.0021 28.7751C84.0021 28.9344 83.8974 29.0554 83.5598 29.172L81.0948 30.1223C80.9461 30.184 80.7795 30.1866 80.6289 30.1297C80.4969 30.0516 80.3935 29.9332 80.334 29.7917C79.4495 28.1081 77.8749 26.9645 75.4512 26.9645C72.308 26.9645 70.0567 29.4214 70.0567 32.6072C70.0567 35.6955 71.9733 38.235 75.5411 38.235C77.4179 38.235 78.9143 37.3497 79.6116 36.3773H77.3854C77.3092 36.3785 77.2335 36.3643 77.1629 36.3357C77.0922 36.307 77.028 36.2645 76.9741 36.2105C76.9202 36.1566 76.8777 36.0923 76.8491 36.0216C76.8205 35.9509 76.8063 35.8751 76.8075 35.7988V33.8968C76.8063 33.8205 76.8205 33.7448 76.8491 33.674C76.8777 33.6033 76.9202 33.5391 76.9741 33.4851C77.028 33.4312 77.0922 33.3886 77.1629 33.36C77.2335 33.3313 77.3092 33.3172 77.3854 33.3184H83.9092C83.984 33.3146 84.0588 33.3261 84.1289 33.3522C84.1991 33.3783 84.2632 33.4185 84.3174 33.4703C84.3715 33.5222 84.4144 33.5845 84.4436 33.6535C84.4728 33.7225 84.4876 33.7968 84.4871 33.8717ZM172.744 26.5204V26.3507C172.744 26.3388 172.748 26.3273 172.756 26.3182C172.765 26.3107 172.776 26.3065 172.787 26.3064H173.865C173.87 26.3062 173.876 26.3072 173.881 26.3092C173.887 26.3112 173.892 26.3143 173.896 26.3182C173.904 26.3273 173.908 26.3388 173.908 26.3507V26.5204C173.907 26.5318 173.903 26.5428 173.896 26.5514C173.892 26.5553 173.887 26.5584 173.881 26.5604C173.876 26.5624 173.87 26.5634 173.865 26.5632H173.471V27.6271C173.471 27.6387 173.466 27.6497 173.458 27.658C173.45 27.6662 173.439 27.671 173.427 27.6713H173.223C173.218 27.6713 173.212 27.6701 173.207 27.6678C173.202 27.6655 173.198 27.6622 173.194 27.6581C173.19 27.6541 173.186 27.6493 173.184 27.6439C173.182 27.6386 173.181 27.6329 173.181 27.6271V26.5632H172.787C172.781 26.5636 172.776 26.5628 172.77 26.5608C172.765 26.5588 172.76 26.5557 172.756 26.5516C172.752 26.5476 172.749 26.5427 172.747 26.5373C172.745 26.5319 172.744 26.5261 172.744 26.5204ZM174.628 26.3448L174.923 27.028L175.218 26.3448C175.223 26.3327 175.231 26.3224 175.242 26.3153C175.254 26.3089 175.268 26.3059 175.282 26.3064H175.624C175.629 26.306 175.635 26.3068 175.64 26.3087C175.645 26.3106 175.65 26.3136 175.654 26.3175C175.658 26.3214 175.661 26.3261 175.664 26.3313C175.666 26.3365 175.667 26.3421 175.666 26.3478V27.6286C175.667 27.6342 175.666 27.6398 175.664 27.6451C175.662 27.6503 175.659 27.6552 175.655 27.6592C175.651 27.6632 175.647 27.6664 175.642 27.6685C175.636 27.6706 175.631 27.6716 175.625 27.6713H175.433C175.428 27.6715 175.422 27.6706 175.417 27.6686C175.411 27.6665 175.407 27.6635 175.402 27.6595C175.398 27.6556 175.395 27.6508 175.393 27.6454C175.391 27.64 175.39 27.6343 175.391 27.6286V26.662L175.074 27.3644C175.069 27.3777 175.061 27.3894 175.05 27.3984C175.038 27.4051 175.024 27.4082 175.01 27.4072H174.854C174.841 27.408 174.827 27.4049 174.816 27.3984C174.804 27.3898 174.796 27.378 174.792 27.3644L174.477 26.662V27.6286C174.477 27.6341 174.476 27.6397 174.474 27.645C174.472 27.6502 174.469 27.655 174.465 27.659C174.461 27.663 174.457 27.6662 174.452 27.6683C174.446 27.6704 174.441 27.6715 174.435 27.6713H174.239C174.234 27.6713 174.228 27.6701 174.223 27.6679C174.218 27.6657 174.214 27.6625 174.21 27.6585C174.206 27.6545 174.204 27.6498 174.202 27.6446C174.2 27.6395 174.199 27.634 174.199 27.6286V26.3478C174.199 26.3421 174.2 26.3365 174.202 26.3313C174.204 26.3261 174.208 26.3214 174.212 26.3175C174.216 26.3136 174.22 26.3106 174.226 26.3087C174.231 26.3068 174.237 26.306 174.242 26.3064H174.574C174.587 26.3061 174.6 26.3091 174.612 26.3153C174.62 26.3234 174.626 26.3336 174.628 26.3448Z" fill="#22D3D3"/>
</svg>
