<svg width="197" height="68" viewBox="0 0 197 68" fill="none" xmlns="http://www.w3.org/2000/svg">
<path d="M15 39.8732C16.1543 39.7434 17.312 39.8411 18.4674 39.8173C18.7255 39.8113 18.8394 39.9447 18.8371 40.2234C18.8266 41.25 18.8313 42.2767 18.8336 43.3033C18.8336 43.5022 18.7987 43.6677 18.5628 43.6666C17.4236 43.663 16.2856 43.6558 15.1465 43.6439C15.0976 43.6439 15.0488 43.5844 15 43.5522C15 42.3255 15 41.1 15 39.8732Z" fill="black"/>
<path d="M162.962 14.1024C162.966 14.0691 162.967 14.0345 162.966 14H163.895C163.895 14.0333 163.898 14.0667 163.901 14.1C163.588 14.3609 163.274 14.3597 162.96 14.1024H162.962Z" fill="#F9B233"/>
<path d="M24.1747 34.2364C25.8765 32.2236 27.4864 30.3311 29.08 28.4244C29.3416 28.1123 29.6136 27.9658 30.0227 27.9765C30.9899 28.0027 31.957 27.9837 32.9253 27.9861C33.0531 27.9861 33.2124 27.9349 33.2833 28.1016C33.3565 28.2731 33.1961 28.3434 33.1124 28.4387C31.6873 30.0501 30.2703 31.671 28.822 33.261C28.514 33.5992 28.5116 33.8208 28.7371 34.2066C30.454 37.1555 32.1441 40.1199 33.8377 43.0831C33.9296 43.2439 34.1423 43.4083 34.0144 43.606C33.9156 43.7596 33.6924 43.6679 33.5262 43.6691C32.5196 43.6762 31.5129 43.6548 30.5075 43.681C30.1262 43.6905 29.9042 43.5667 29.7391 43.2153C28.7081 41.0275 27.4434 38.973 26.2368 36.8864C26.0346 36.5362 25.9637 36.3957 25.5556 36.7875C24.5002 37.8023 24.0945 38.9647 24.2549 40.426C24.3537 41.324 24.2549 42.2435 24.2828 43.1522C24.2944 43.5393 24.1922 43.687 23.8027 43.6774C22.9321 43.6572 22.0603 43.6488 21.1908 43.6798C20.7573 43.6953 20.6805 43.5119 20.6852 43.12C20.7294 40.0175 20.7828 36.9162 20.7817 33.8136C20.7793 30.2371 20.7363 26.6617 20.6794 23.0851C20.6701 22.5266 20.7956 22.3157 21.3722 22.3539C22.1428 22.4051 22.9205 22.3896 23.6935 22.3574C24.1457 22.3396 24.2921 22.4718 24.284 22.9577C24.2305 26.4747 24.2084 29.9917 24.1759 33.5087C24.1736 33.7017 24.1759 33.8946 24.1759 34.2352L24.1747 34.2364Z" fill="black"/>
<path d="M54.0241 30.1001C54.9645 28.921 56.0839 28.1754 57.4555 27.8229C59.9942 27.1702 62.3643 28.0623 63.493 30.137C64.0079 31.085 64.2486 32.1224 64.2602 33.2014C64.2974 36.4802 64.3055 39.7602 64.3532 43.039C64.3613 43.5726 64.1928 43.7239 63.6906 43.7012C62.8793 43.6643 62.0656 43.6691 61.2542 43.7012C60.8148 43.7179 60.6893 43.5631 60.6939 43.1248C60.7288 40.1616 60.7404 37.1972 60.7602 34.2328C60.7637 33.6588 60.7311 33.0883 60.5684 32.5333C59.9884 30.5622 57.81 29.8631 56.1315 31.1267C54.947 32.0188 54.4519 33.317 54.2612 34.7402C54.016 36.5684 54.2473 38.4085 54.2171 40.2438C54.2008 41.2514 54.2229 42.2589 54.2391 43.2665C54.245 43.5809 54.1101 43.6786 53.8195 43.675C52.8722 43.6643 51.9236 43.6572 50.9763 43.6786C50.5973 43.6869 50.5276 43.5154 50.5334 43.1784C50.5741 40.9084 50.6218 38.6371 50.6299 36.3659C50.6392 33.8172 50.6299 31.2673 50.5811 28.7197C50.5694 28.0992 50.7589 27.9348 51.3343 27.9741C52.0469 28.0242 52.7664 28.0087 53.4801 27.9777C53.9265 27.9575 54.0566 28.1326 54.0287 28.5637C53.9974 29.0341 54.0218 29.507 54.0218 30.1001H54.0241Z" fill="black"/>
<path d="M102.933 30.4251C103.699 29.5473 104.537 28.841 105.574 28.4004C106.592 27.9668 107.657 27.8346 108.754 27.8882C109.174 27.9085 109.332 28.099 109.315 28.523C109.291 29.115 109.281 29.7117 109.318 30.3024C109.348 30.7895 109.123 30.8669 108.727 30.8348C107.729 30.755 106.757 30.8872 105.847 31.3243C103.714 32.3485 103.02 34.2136 103.02 36.4658C103.02 38.681 103.02 40.8951 103.047 43.1103C103.053 43.5534 102.927 43.6975 102.491 43.6808C101.68 43.6487 100.865 43.6463 100.054 43.6808C99.5854 43.7011 99.4146 43.576 99.4274 43.0627C99.4843 40.6533 99.5273 38.2428 99.5273 35.8322C99.5273 33.4609 99.4913 31.0896 99.4239 28.7196C99.4064 28.0955 99.604 27.9383 100.178 27.974C100.95 28.0216 101.727 28.0038 102.5 27.9788C102.913 27.9657 103.053 28.1276 103.024 28.535C102.978 29.1638 102.963 29.795 102.934 30.4263L102.933 30.4251Z" fill="black"/>
<path fill-rule="evenodd" clip-rule="evenodd" d="M162.962 14.1024C163.274 14.1024 163.586 14.1014 163.899 14.1002L163.902 14.1002C171.597 14.5123 177.372 18.1472 180.884 25.1384C186.789 36.8923 179.75 51.264 167.042 53.6603C156.266 55.691 146.014 48.408 144.169 37.4092C142.327 26.4282 149.659 16.0582 160.481 14.3313C161.304 14.2003 162.13 14.1239 162.962 14.1024ZM170.18 32.2038L168.776 33.8597C168.776 33.683 168.776 33.5251 168.775 33.3793L168.775 33.3768C168.774 33.1146 168.774 32.8913 168.776 32.6677C168.784 31.9046 168.791 31.1415 168.798 30.3784C168.823 27.8011 168.847 25.2231 168.89 22.6467C168.898 22.1131 168.734 21.9559 168.231 21.9785C167.419 22.0154 166.605 22.0011 165.792 21.9833C165.424 21.9749 165.269 22.094 165.284 22.493C165.302 22.9543 165.3 23.416 165.299 23.8777C165.298 24.1479 165.297 24.418 165.3 24.688C165.311 25.6058 165.325 26.5237 165.339 27.4417C165.367 29.3101 165.396 31.1789 165.393 33.0476C165.391 35.6905 165.352 38.3342 165.313 40.9774L165.313 40.979C165.304 41.5965 165.295 42.2141 165.286 42.8316C165.282 43.1842 165.382 43.3283 165.746 43.3199C166.636 43.3009 167.526 43.3045 168.417 43.3188C168.762 43.3247 168.897 43.2104 168.888 42.8376C168.879 42.4883 168.888 42.1375 168.896 41.787C168.911 41.2052 168.925 40.6241 168.86 40.0519C168.691 38.5798 169.127 37.4174 170.184 36.4205C170.516 36.1073 170.588 36.1144 170.806 36.4896C171.057 36.9241 171.31 37.3569 171.564 37.7898C172.522 39.4237 173.479 41.0576 174.288 42.7769C174.485 43.1937 174.738 43.3426 175.189 43.3259C175.793 43.3036 176.397 43.3068 177.002 43.3101C177.365 43.312 177.728 43.314 178.091 43.3104C178.139 43.3098 178.19 43.3169 178.242 43.3242C178.39 43.3446 178.543 43.3658 178.622 43.2163C178.699 43.069 178.603 42.9397 178.512 42.8155C178.481 42.774 178.451 42.7331 178.427 42.6923L178.076 42.0772C176.496 39.3154 174.916 36.5532 173.32 33.8003C173.121 33.4561 173.12 33.2501 173.398 32.944C174.818 31.3802 176.215 29.7926 177.611 28.205C177.641 28.1718 177.679 28.1404 177.718 28.1084C177.836 28.013 177.96 27.9114 177.871 27.7358C177.789 27.576 177.629 27.5948 177.477 27.6128C177.429 27.6185 177.381 27.6241 177.337 27.6238C176.949 27.6198 176.562 27.6207 176.174 27.6216C175.652 27.6228 175.13 27.624 174.608 27.6131C174.226 27.6048 173.95 27.7274 173.706 28.03C173.282 28.5535 172.845 29.0655 172.408 29.5778C172.248 29.7659 172.087 29.954 171.927 30.1428C171.351 30.8227 170.775 31.5022 170.182 32.2018L170.18 32.2038ZM156.652 43.5096C158.018 43.219 159.109 42.4199 160.064 41.2277V41.2241C160.064 41.4193 160.065 41.6002 160.067 41.7714C160.07 42.1413 160.074 42.4654 160.058 42.7879C160.039 43.1547 160.13 43.331 160.534 43.3191C161.385 43.2941 162.237 43.2988 163.088 43.3179C163.446 43.3262 163.553 43.194 163.553 42.8355C163.554 37.9322 163.564 33.0289 163.582 28.1256C163.583 27.7337 163.443 27.6039 163.072 27.6122C162.259 27.6301 161.446 27.648 160.634 27.6075C160.09 27.5801 159.895 27.7349 159.905 28.328C159.946 30.7386 159.966 33.1515 159.937 35.5633C159.918 37.0735 159.573 38.5146 158.557 39.6782C157.72 40.637 156.653 41.0216 155.415 40.6882C154.345 40.4011 153.798 39.5817 153.579 38.5301C153.479 38.0513 153.447 37.5487 153.449 37.058C153.463 34.1329 153.487 31.209 153.533 28.284C153.541 27.7623 153.377 27.586 152.868 27.6099C152.077 27.6468 151.282 27.6384 150.489 27.6122C150.029 27.5967 149.838 27.7218 149.845 28.2435C149.863 29.5448 149.868 30.8467 149.874 32.1486C149.881 34.1282 149.889 36.1079 149.944 38.0858C150.062 42.3377 152.885 44.3136 156.652 43.5096Z" fill="#F9B233"/>
<path fill-rule="evenodd" clip-rule="evenodd" d="M68.2866 41.9395C70.2312 43.8915 74.9494 44.6192 77.3498 41.257C77.3498 41.5107 77.3531 41.7545 77.3562 41.9915C77.3629 42.4886 77.3692 42.9557 77.344 43.4211C77.2359 45.4255 76.299 46.6713 74.6181 47.0548C73.9335 47.212 73.2349 47.1918 72.5479 47.0596C71.3018 46.8202 70.4137 46.1615 70.1789 44.8098C70.1173 44.4537 69.8895 44.4406 69.6256 44.4406C69.4092 44.4412 69.1928 44.4428 68.9763 44.4445C68.3606 44.4493 67.7449 44.454 67.13 44.4346C66.5976 44.4179 66.5232 44.6657 66.5999 45.1325C66.901 46.9786 67.8774 48.3149 69.5617 49.0056C72.0853 50.0406 74.6611 50.0382 77.1987 49.0521C78.8086 48.4256 79.8455 47.1858 80.3685 45.5089C80.6161 44.7133 80.7149 43.8891 80.7161 43.0566C80.7186 41.7764 80.7089 40.4961 80.6992 39.2157C80.682 36.9391 80.6648 34.6622 80.7161 32.3853C80.7299 31.7758 80.734 31.1662 80.7381 30.5568C80.7426 29.8814 80.7472 29.2062 80.7649 28.5313C80.7765 28.1108 80.6382 27.9834 80.2325 27.9965C79.3433 28.0239 78.4529 28.0132 77.5625 28.0001C77.2382 27.9953 77.1115 28.1085 77.1312 28.4503C77.1488 28.7504 77.145 29.0511 77.1409 29.3754C77.139 29.5235 77.1371 29.6765 77.1371 29.8366C76.2025 28.8457 75.6957 28.4372 74.9471 28.1656C72.1527 27.1509 68.791 27.9298 67.116 31.1586C66.0966 33.1237 65.9118 35.2175 66.1768 37.3756C66.3918 39.124 67.03 40.6782 68.2866 41.9395ZM76.7862 38.873C77.1791 37.9107 77.2907 36.8972 77.2884 35.8646C77.2779 34.5164 77.1698 33.1872 76.4689 31.9891C75.7749 30.8052 74.7125 30.3086 73.4094 30.33C72.0459 30.3515 70.9568 30.9351 70.393 32.2392C69.4178 34.4985 69.4433 36.8079 70.3744 39.0672C70.9649 40.4987 72.1599 41.0811 73.6396 41.049C75.1356 41.018 76.2038 40.301 76.7862 38.873Z" fill="black"/>
<path fill-rule="evenodd" clip-rule="evenodd" d="M44.8606 29.8676C44.8505 29.6783 44.843 29.5047 44.836 29.3419C44.8214 29.0011 44.8088 28.7078 44.7782 28.4172C44.7433 28.0921 44.8875 27.9873 45.1699 27.9873C45.441 27.9873 45.7119 27.9881 45.9828 27.9888C46.66 27.9908 47.3368 27.9927 48.0143 27.9825C48.4413 27.9758 48.4365 28.24 48.4314 28.5242C48.431 28.5433 48.4307 28.5624 48.4305 28.5816C48.4226 29.24 48.4129 29.8985 48.4032 30.557C48.38 32.1309 48.3567 33.705 48.3584 35.2786C48.3595 37.8463 48.3909 40.4129 48.4409 42.9807C48.4514 43.5143 48.3317 43.7203 47.7725 43.6858C47.0152 43.6401 46.253 43.657 45.4931 43.6739C45.4214 43.6755 45.3497 43.6771 45.278 43.6786C44.9293 43.6858 44.7921 43.581 44.8212 43.2022C44.8452 42.8794 44.84 42.5548 44.8345 42.2057C44.8319 42.0474 44.8293 41.8841 44.8293 41.7135C44.7283 41.8198 44.6309 41.9258 44.5351 42.03C44.2209 42.3718 43.9235 42.6953 43.5681 42.9545C40.9899 44.8291 37.0889 44.1836 35.2233 41.5694C33.0507 38.524 33.16 33.0073 35.4162 30.0155C37.8189 26.8296 42.6882 27.0452 44.6236 29.6106C44.6511 29.6464 44.6824 29.6792 44.739 29.7387C44.7704 29.7717 44.8097 29.813 44.8606 29.8676ZM44.3713 39.2267C44.8339 38.1584 44.9316 37.0186 44.9653 35.8693L44.9665 35.8681C44.9432 34.7176 44.8398 33.579 44.3864 32.5083C43.7831 31.0851 42.73 30.3062 41.1991 30.2657C39.6566 30.2252 38.4419 30.9827 37.8816 32.4643C37.0087 34.7736 37.0691 37.1103 38.0176 39.3816C38.5988 40.775 39.7298 41.4313 41.2049 41.4039C42.7044 41.3753 43.7645 40.6297 44.3713 39.2267Z" fill="black"/>
<path fill-rule="evenodd" clip-rule="evenodd" d="M86.3526 43.4367C88.9669 44.6349 91.5172 44.0513 93.7257 41.7324L93.7269 41.7312C93.7269 41.8854 93.7295 42.0359 93.732 42.1838C93.7378 42.5202 93.7434 42.8426 93.7176 43.1628C93.685 43.5582 93.8094 43.688 94.1965 43.6773C95.0276 43.6547 95.861 43.638 96.691 43.6821C97.2106 43.7095 97.3454 43.5344 97.3373 43.0151C97.2908 39.915 97.2617 36.8136 97.2548 33.7123C97.2522 32.4317 97.278 31.1504 97.3038 29.869C97.3126 29.4319 97.3215 28.9948 97.3292 28.5576C97.335 28.2349 97.3303 27.9693 96.8898 27.9788C95.961 27.9991 95.0322 27.9919 94.1035 27.9824C93.7385 27.9788 93.6385 28.142 93.6792 28.4969C93.7121 28.7823 93.7223 29.0705 93.7339 29.3981C93.7391 29.5449 93.7445 29.6995 93.7524 29.8654C91.4381 26.7045 85.5889 26.6806 83.4908 31.3958C82.2203 34.2518 82.2296 37.1816 83.3211 40.0889C83.8848 41.5919 84.881 42.7626 86.3526 43.4367ZM93.2526 39.268C93.7315 38.1854 93.8326 37.0254 93.8616 35.8546C93.8396 34.7029 93.7338 33.5643 93.2781 32.4948C92.6725 31.074 91.6124 30.282 90.0827 30.2689C88.5495 30.2558 87.3592 30.9334 86.7919 32.4198C85.905 34.7446 85.9562 37.1028 86.9198 39.3931C87.5045 40.783 88.6402 41.4332 90.1152 41.4023C91.5927 41.3725 92.6446 40.6388 93.2526 39.268Z" fill="black"/>
<path fill-rule="evenodd" clip-rule="evenodd" d="M110.94 41.3511C112.459 43.3413 114.554 44.0059 116.92 44.0261H116.919C116.983 44.0261 117.048 44.0265 117.112 44.0269C117.241 44.0277 117.371 44.0285 117.499 44.0261C120.713 43.963 123.196 42.0407 124.091 38.887C124.687 36.7872 124.685 34.6685 124.054 32.5818C123.343 30.2272 121.834 28.6516 119.481 27.9786C117.843 27.5106 116.19 27.4999 114.554 27.9453C112.352 28.5432 110.828 29.9474 109.995 32.1197C109.307 33.9157 109.236 35.7773 109.484 37.6602C109.663 39.0096 110.111 40.2661 110.94 41.3511ZM120.345 39.0465C120.693 38.0485 120.779 37.0088 120.806 35.8416V35.8404C120.772 34.6923 120.696 33.4334 120.154 32.2614C119.528 30.9073 118.455 30.2653 117.011 30.2487C115.561 30.232 114.42 30.7953 113.735 32.1566C113.304 33.0142 113.146 33.9443 113.076 34.8935C112.967 36.4025 113.018 37.8984 113.614 39.3121C114.243 40.8033 115.451 41.4869 117.22 41.4166C118.756 41.3547 119.82 40.5448 120.345 39.0465Z" fill="black"/>
<path fill-rule="evenodd" clip-rule="evenodd" d="M140.121 31.2471C138.719 28.609 136.39 27.6824 133.599 27.6491H133.598C133.534 27.6491 133.47 27.6487 133.405 27.6483C133.276 27.6475 133.147 27.6467 133.018 27.6491C129.882 27.7134 127.362 29.5749 126.436 32.5929C125.778 34.7367 125.768 36.9222 126.411 39.0719C127.088 41.3348 128.529 42.9033 130.76 43.6191C132.515 44.1825 134.302 44.2027 136.078 43.6954C138.17 43.0987 139.608 41.7421 140.436 39.696C140.823 38.7384 141.019 37.7356 141.085 36.7078C141.209 34.8082 141.026 32.9502 140.121 31.2471ZM136.956 39.0422C137.305 38.042 137.389 37.0036 137.416 35.8629C137.389 34.728 137.31 33.5063 136.813 32.3655C136.21 30.9839 135.153 30.2813 133.674 30.2539C132.176 30.2253 130.944 30.7648 130.337 32.225C129.359 34.5772 129.351 36.9997 130.261 39.3685C130.84 40.8775 132.129 41.5123 133.951 41.4171C135.385 41.342 136.446 40.5 136.956 39.0422Z" fill="black"/>
</svg>
