<svg width="197" height="68" viewBox="0 0 197 68" fill="none" xmlns="http://www.w3.org/2000/svg">
<path fill-rule="evenodd" clip-rule="evenodd" d="M88.2992 35.7128C88.2992 30.6436 92.2688 26.6485 97.2628 26.6485C102.385 26.6485 106.226 30.5148 106.184 35.7128C106.184 40.7818 102.257 44.7341 97.2628 44.7341C92.226 44.7341 88.2992 40.7818 88.2992 35.7128ZM91.7992 35.7128C91.7992 38.8486 94.2323 41.3833 97.2628 41.3833C100.293 41.3833 102.726 38.8057 102.726 35.7128C102.726 32.5768 100.293 29.9993 97.2628 29.9993C94.2323 29.9993 91.7992 32.5768 91.7992 35.7128Z" fill="url(#paint0_linear_4779_3040)"/>
<path d="M117.104 41.4263C113.846 41.4263 111.433 38.9777 111.433 35.7557C111.433 32.4908 113.888 30.0422 117.104 30.0422C118.543 30.0422 119.94 30.6867 120.913 31.8465L123.283 29.4837C122.436 28.4099 120.236 26.6485 117.062 26.6485C111.814 26.6485 107.878 30.5578 107.878 35.7128C107.878 40.7818 111.899 44.7341 117.062 44.7341C118.755 44.7341 120.659 44.1326 122.013 43.1015C122.479 42.7149 122.902 42.3284 123.283 41.8987L120.871 39.5789L120.828 39.622C119.897 40.7818 118.543 41.4263 117.104 41.4263Z" fill="url(#paint1_linear_4779_3040)"/>
<path fill-rule="evenodd" clip-rule="evenodd" d="M138.714 28.4315V26.6485H142.3L142.343 44.7391H138.799V42.7821L137.561 43.6085C136.281 44.5217 134.786 45 133.335 45H133.164C128.297 44.913 124.327 40.8253 124.327 35.9113C124.327 30.8669 128.34 26.779 133.335 26.779C134.829 26.779 136.281 27.1268 137.561 27.8226L138.714 28.4315ZM133.975 41.608L134.103 41.5645C136.836 41.173 138.799 38.9118 138.757 36.0851V35.3894C138.501 32.4323 136.11 30.1275 133.292 30.1275C130.304 30.1275 127.828 32.6932 127.828 35.8677C127.828 38.9988 130.261 41.5645 133.25 41.608H133.975Z" fill="url(#paint2_linear_4779_3040)"/>
<path d="M82.4227 20H86.078V44.7346H82.4227V20Z" fill="url(#paint3_linear_4779_3040)"/>
<path d="M145.345 20H149V44.7346H145.345V20Z" fill="url(#paint4_linear_4779_3040)"/>
<path fill-rule="evenodd" clip-rule="evenodd" d="M62.0586 35.7128C62.0586 30.6436 66.0188 26.6485 71.0011 26.6485C76.0686 26.6485 79.901 30.5148 79.9436 35.7128C79.9436 40.7818 76.0258 44.7341 71.0011 44.7341C65.9763 44.7341 62.0586 40.7818 62.0586 35.7128ZM65.5504 35.7128C65.5504 38.8486 67.9776 41.3833 71.0011 41.3833C73.9818 41.3833 76.4517 38.8057 76.4517 35.7128C76.4517 32.5768 74.0245 29.9993 71.0011 29.9993C67.9776 29.9993 65.5504 32.5768 65.5504 35.7128Z" fill="url(#paint5_linear_4779_3040)"/>
<path d="M52.9912 44.7341C51.6353 44.7341 50.3218 44.5622 49.0506 44.1755C47.7796 43.7889 46.7627 43.3593 46 42.8009L47.4406 39.7508C48.2033 40.2664 49.0931 40.6959 50.1099 40.9966C51.1692 41.2974 52.2285 41.4692 53.2454 41.4692C55.6181 41.4692 56.8045 40.7818 56.8045 39.4501C56.8045 38.8057 56.5079 38.3332 55.8724 38.0755C55.2792 37.8177 54.3046 37.6029 52.9912 37.3881C51.6353 37.1734 50.4912 36.9157 49.644 36.6148C48.7965 36.3143 48.0338 35.8417 47.4406 35.1113C46.8051 34.4239 46.5085 33.393 46.5085 32.1472C46.5085 30.5148 47.1864 29.1401 48.4576 28.152C49.771 27.164 51.5506 26.6485 53.7962 26.6485C54.9401 26.6485 56.0843 26.7775 57.2282 27.078C58.3298 27.3359 59.2621 27.7225 59.9823 28.152L58.5417 31.2021C57.1435 30.343 55.5334 29.9135 53.7963 29.9135C52.6522 29.9135 51.7624 30.0852 51.1692 30.4719C50.5761 30.8584 50.237 31.3739 50.237 31.9753C50.237 32.6627 50.5761 33.1782 51.2116 33.4359C51.8471 33.6937 52.8641 33.9944 54.1776 34.2091C55.4909 34.4239 56.5928 34.6818 57.44 34.9825C58.2875 35.2831 59.0079 35.7557 59.6009 36.443C60.1942 37.1303 60.4907 38.0755 60.4907 39.3212C60.4907 40.9537 59.8129 42.2855 58.4994 43.2735C57.1435 44.2615 55.2792 44.7341 52.9912 44.7341Z" fill="url(#paint6_linear_4779_3040)"/>
<defs>
<linearGradient id="paint0_linear_4779_3040" x1="97.5" y1="20" x2="97.5" y2="45" gradientUnits="userSpaceOnUse">
<stop stop-color="#2E6CF6"/>
<stop offset="1" stop-color="#4BA6F8"/>
</linearGradient>
<linearGradient id="paint1_linear_4779_3040" x1="97.5" y1="20" x2="97.5" y2="45" gradientUnits="userSpaceOnUse">
<stop stop-color="#2E6CF6"/>
<stop offset="1" stop-color="#4BA6F8"/>
</linearGradient>
<linearGradient id="paint2_linear_4779_3040" x1="97.5" y1="20" x2="97.5" y2="45" gradientUnits="userSpaceOnUse">
<stop stop-color="#2E6CF6"/>
<stop offset="1" stop-color="#4BA6F8"/>
</linearGradient>
<linearGradient id="paint3_linear_4779_3040" x1="97.5" y1="20" x2="97.5" y2="45" gradientUnits="userSpaceOnUse">
<stop stop-color="#2E6CF6"/>
<stop offset="1" stop-color="#4BA6F8"/>
</linearGradient>
<linearGradient id="paint4_linear_4779_3040" x1="97.5" y1="20" x2="97.5" y2="45" gradientUnits="userSpaceOnUse">
<stop stop-color="#2E6CF6"/>
<stop offset="1" stop-color="#4BA6F8"/>
</linearGradient>
<linearGradient id="paint5_linear_4779_3040" x1="97.5" y1="20" x2="97.5" y2="45" gradientUnits="userSpaceOnUse">
<stop stop-color="#2E6CF6"/>
<stop offset="1" stop-color="#4BA6F8"/>
</linearGradient>
<linearGradient id="paint6_linear_4779_3040" x1="97.5" y1="20" x2="97.5" y2="45" gradientUnits="userSpaceOnUse">
<stop stop-color="#2E6CF6"/>
<stop offset="1" stop-color="#4BA6F8"/>
</linearGradient>
</defs>
</svg>
